<?xml version="1.0" encoding="UTF-8"?>
<svg id="Layer_2" data-name="Layer 2" xmlns="http://www.w3.org/2000/svg" viewBox="0 0 126.76 92.68">
  <defs>
    <style>
      .cls-1 {
        fill: #fff;
      }
    </style>
  </defs>
  <g id="Layer_1-2" data-name="Layer 1">
    <path class="cls-1" d="M126.76,75v17.64c-7.8.04-55.05.08-57.23-.07-3.79-.25-3.54-5.93.26-5.93h50.97v-10.68c0-2.29-1.85-4.68-4.03-5.33-.74-.22-3.07-.26-3.17-.67,1.11-2.36,2.45-4.54,3.3-7.02,6.2-18.02-12.49-21.77-22.74-30.9-.55-.48-1.42-1.91-2.03-1.81-.14.02-1.3,1.72-1.76,2.15-5.8,5.43-13.35,7.46-18.89,13.22-5.46,5.66-5.74,11.66-2.94,18.78.32.81,2.62,5.03,2.56,5.32-.15.66-1.64.57-2.15.73-6.75,2.16-4.34,7.27-4.78,12.74-.44,5.43-4.11,8.94-9.48,9.48l-31.66-.04c-4.44-.41-9.51-3.85-9.51-8.73v-36.82H4.44c-4.05,0-5.98-4.99-2.98-7.71L47.95.84c1.52-1.29,3.81-1.07,5.06.48l21.39,25.51c1.01,1.21.91,3-.24,4.08h0c-1.24,1.16-3.2,1.05-4.3-.24L49.63,6.92,9.81,40.81s6.58.27,9.67.25v42.1c.26,1.81,1.71,3.17,3.48,3.49h31.2c5.57-.62,3.6-7.5,3.96-11.4.31-3.32,2.04-6.59,4.82-8.45-.98-2.96-2.24-5.9-2.43-9.07-.58-9.64,5.95-16.68,13.38-21.68,6.25-4.21,15.54-7.4,16.59-15.99-1.88-1.2-3.72-2.21-4.95-4.14-4.25-6.67.08-15.1,7.75-15.92-9.61,5.98-2.04,19.31,7.21,16.09,1.41-.49,2.5-1.27,3.47-2.17-1.51,3.97-5.29,6.79-9.6,6.72,1.55,7.46,8.93,10.34,14.62,14.06,5.59,3.66,11.37,7.98,13.88,14.44,2.19,5.62,1.55,12.01-.88,17.44,2.04,1.45,3.39,3.33,4.13,5.72.16.51.65,2.3.65,2.7Z"/>
  </g>
</svg>